<svg width="50" height="50" viewBox="0 0 50 50" fill="none" xmlns="http://www.w3.org/2000/svg">
    <g clip-path="url(#clip0_245_81)">
    <path d="M25.0002 4.16675C13.896 13.6459 8.3335 21.8334 8.3335 28.7501C8.3335 39.1251 16.2502 45.8334 25.0002 45.8334C33.7502 45.8334 41.6668 39.1251 41.6668 28.7501C41.6668 21.8334 36.1043 13.6459 25.0002 4.16675ZM16.3127 29.1667C17.0835 29.1667 17.7085 29.7084 17.8543 30.4584C18.7085 35.0834 22.6043 36.6668 25.4377 36.4376C26.3335 36.3959 27.0835 37.1043 27.0835 38.0001C27.0835 38.8334 26.4168 39.5209 25.5835 39.5626C21.146 39.8334 15.9585 37.2918 14.771 30.9792C14.6043 30.0417 15.3543 29.1667 16.3127 29.1667Z" fill="#776B5D"/>
    </g>
    <defs>
    <clipPath id="clip0_245_81">
    <rect width="50" height="50" fill="white"/>
    </clipPath>
    </defs>
    </svg>
    