<svg width="50" height="50" viewBox="0 0 50 50" fill="none" xmlns="http://www.w3.org/2000/svg">
    <g clip-path="url(#clip0_245_84)">
    <path d="M37.6252 47.8957H41.0835C42.8335 47.8957 44.271 46.5624 44.4793 44.8541L47.9168 10.5208H37.5002V2.08325H33.396V10.5208H23.0418L23.6668 15.3958C27.2293 16.3749 30.5627 18.1458 32.5627 20.1041C35.5627 23.0624 37.6252 26.1249 37.6252 31.1249V47.8957ZM2.0835 45.8124V43.7499H33.396V45.8124C33.396 46.9582 32.4585 47.8957 31.2918 47.8957H4.18766C3.021 47.8957 2.0835 46.9582 2.0835 45.8124ZM33.396 31.2291C33.396 14.5624 2.0835 14.5624 2.0835 31.2291H33.396ZM2.12516 35.4166H33.3752V39.5833H2.12516V35.4166Z" fill="#776B5D"/>
    </g>
    <defs>
    <clipPath id="clip0_245_84">
    <rect width="50" height="50" fill="white"/>
    </clipPath>
    </defs>
    </svg>
    