<svg width="50" height="50" viewBox="0 0 50 50" fill="none" xmlns="http://www.w3.org/2000/svg">
<path d="M32.3232 36.7175C32.3232 37.8829 32.7863 39.0005 33.6102 39.8246C34.4343 40.6486 35.552 41.1116 36.7173 41.1116C37.8826 41.1116 39.0003 40.6486 39.8244 39.8246C40.6483 39.0005 41.1114 37.8829 41.1114 36.7175C41.1114 35.5522 40.6483 34.4346 39.8244 33.6105C39.0003 32.7865 37.8826 32.3235 36.7173 32.3235C35.552 32.3235 34.4343 32.7865 33.6102 33.6105C32.7863 34.4346 32.3232 35.5522 32.3232 36.7175Z" stroke="#776B5D" stroke-width="3.13" stroke-linecap="round" stroke-linejoin="round"/>
<path d="M7.42383 36.7175C7.42383 37.2946 7.53749 37.8661 7.7583 38.399C7.97912 38.9322 8.3028 39.4167 8.71082 39.8246C9.11884 40.2326 9.60324 40.5564 10.1364 40.7771C10.6695 40.998 11.2409 41.1116 11.8179 41.1116C12.3949 41.1116 12.9663 40.998 13.4994 40.7771C14.0325 40.5564 14.5169 40.2326 14.925 39.8246C15.333 39.4167 15.6567 38.9322 15.8775 38.399C16.0983 37.8661 16.212 37.2946 16.212 36.7175C16.212 36.1405 16.0983 35.569 15.8775 35.0361C15.6567 34.5029 15.333 34.0184 14.925 33.6105C14.5169 33.2025 14.0325 32.8787 13.4994 32.658C12.9663 32.4371 12.3949 32.3235 11.8179 32.3235C11.2409 32.3235 10.6695 32.4371 10.1364 32.658C9.60324 32.8787 9.11884 33.2025 8.71082 33.6105C8.3028 34.0184 7.97912 34.5029 7.7583 35.0361C7.53749 35.569 7.42383 36.1405 7.42383 36.7175Z" stroke="#776B5D" stroke-width="3.13" stroke-linecap="round" stroke-linejoin="round"/>
<path d="M32.3235 36.7175H16.2119" stroke="#776B5D" stroke-width="3.13" stroke-linecap="round" stroke-linejoin="round"/>
<path d="M7.42385 36.7175H5.95916C5.18225 36.7175 4.43714 36.4089 3.88778 35.8596C3.33841 35.3102 3.02979 34.565 3.02979 33.7881V11.8178C3.02979 11.0409 3.33841 10.2958 3.88778 9.74642C4.43714 9.19707 5.18225 8.88843 5.95916 8.88843H36.2001C37.2447 8.88858 38.2704 9.16805 39.1707 9.69787C40.071 10.2277 40.8133 10.9886 41.3206 11.9018L45.6795 19.7486C46.5265 21.2711 46.9708 22.9844 46.9704 24.7266V33.7881C46.9704 34.565 46.6619 35.3102 46.1125 35.8596C45.5631 36.4089 44.8179 36.7175 44.041 36.7175H41.1117" stroke="#776B5D" stroke-width="3.13" stroke-linecap="round" stroke-linejoin="round"/>
<path d="M3.02979 27.9294H39.7446C40.6277 27.9304 41.4993 28.1308 42.294 28.5161C43.0888 28.9012 43.7862 29.4611 44.334 30.1538L46.9685 33.4855" stroke="#776B5D" stroke-width="3.13" stroke-linecap="round" stroke-linejoin="round"/>
<path d="M3.02979 14.7471H42.9005" stroke="#776B5D" stroke-width="3.13" stroke-linecap="round" stroke-linejoin="round"/>
<path d="M33.7881 14.7471V22.0705" stroke="#776B5D" stroke-width="3.13" stroke-linecap="round" stroke-linejoin="round"/>
<path d="M19.1411 14.7471V22.0705" stroke="#776B5D" stroke-width="3.13" stroke-linecap="round" stroke-linejoin="round"/>
<path d="M3.02979 22.0706H46.6208" stroke="#776B5D" stroke-width="3.13" stroke-linecap="round" stroke-linejoin="round"/>
</svg>
