<svg width="50" height="50" viewBox="0 0 50 50" fill="none" xmlns="http://www.w3.org/2000/svg">
    <g clip-path="url(#clip0_245_87)">
    <path d="M25.0002 12.5001C27.3013 12.5001 29.1668 10.6346 29.1668 8.33341C29.1668 6.03223 27.3013 4.16675 25.0002 4.16675C22.699 4.16675 20.8335 6.03223 20.8335 8.33341C20.8335 10.6346 22.699 12.5001 25.0002 12.5001Z" fill="#776B5D"/>
    <path d="M33.1043 16.8959C32.2918 16.0834 30.896 14.5834 28.1877 14.5834C27.7502 14.5834 25.2293 14.5834 22.896 14.5834C17.1668 14.5626 12.5002 9.89592 12.5002 4.16675H8.3335C8.3335 10.7501 12.7293 16.3334 18.7502 18.1459V45.8334H22.9168V33.3334H27.0835V45.8334H31.2502V20.9376L39.4793 29.1667L42.4168 26.2292L33.1043 16.8959Z" fill="#776B5D"/>
    </g>
    <defs>
    <clipPath id="clip0_245_87">
    <rect width="50" height="50" fill="white"/>
    </clipPath>
    </defs>
    </svg>
    